<svg width="70" height="50" viewBox="0 0 800 800" fill="currentColor" xmlns="http://www.w3.org/2000/svg">
<g clip-path="url(#clip0_1136_2968)">
<path d="M690.456 369.585H778.129C790.209 369.585 800 359.794 800 347.714C800 335.634 790.209 325.843 778.129 325.843H651.652L505.066 160.608C500.934 155.952 495.015 153.276 488.791 153.252C482.677 153.267 476.626 155.857 472.458 160.482L365.211 279.489L314.385 227.168C310.127 222.785 304.215 220.41 298.123 220.544C292.013 220.704 286.252 223.414 282.23 228.014L196.724 325.843H21.871C9.7909 325.843 1.52588e-05 335.634 1.52588e-05 347.714C1.52588e-05 359.794 9.7909 369.585 21.871 369.585H158.496L62.0357 479.945C56.3906 486.405 55.0419 495.571 58.5898 503.381C62.1378 511.192 69.9263 516.21 78.5045 516.21H482.072L464.918 533.364H428.685C416.605 533.364 406.814 543.155 406.814 555.235C406.814 567.315 416.605 577.106 428.685 577.106H725.549C737.629 577.106 747.42 567.315 747.42 555.235C747.42 543.155 737.629 533.364 725.549 533.364H709.892L693.265 516.21H771.891C780.498 516.21 788.306 511.16 791.837 503.308C795.368 495.457 793.964 486.264 788.25 479.824L690.456 369.585ZM526.779 533.364L588.829 471.314L648.974 533.364H526.779ZM650.867 472.47L604.775 424.918C600.697 420.712 595.101 418.316 589.242 418.272C583.478 418.214 577.75 420.534 573.607 424.678L525.814 472.47H126.667L299.549 274.67L441.912 421.222C450.327 429.888 464.177 430.087 472.84 421.672C481.503 413.256 481.705 399.409 473.29 390.744L395.759 310.934L488.58 207.937L723.257 472.47H650.867Z" fill="black"/>
<path d="M628.95 603.009H525.286C513.206 603.009 503.416 612.8 503.416 624.88C503.416 636.96 513.206 646.751 525.286 646.751H628.95C641.03 646.751 650.821 636.96 650.821 624.88C650.821 612.8 641.03 603.009 628.95 603.009Z" fill="black"/>
<path d="M365.75 533.364H321.634C309.554 533.364 299.763 543.155 299.763 555.235C299.763 567.315 309.554 577.106 321.634 577.106H365.75C377.83 577.106 387.621 567.315 387.621 555.235C387.621 543.155 377.83 533.364 365.75 533.364Z" fill="black"/>
</g>
<defs>
<clipPath id="clip0_1136_2968">
<rect width="800" height="800" fill="white"/>
</clipPath>
</defs>
</svg>
